<?xml version="1.0" encoding="UTF-8"?>
<!DOCTYPE svg PUBLIC "-//W3C//DTD SVG 1.1//EN" "http://www.w3.org/Graphics/SVG/1.1/DTD/svg11.dtd">
<svg xmlns="http://www.w3.org/2000/svg" version="1.1" width="150px" height="150px" style="shape-rendering:geometricPrecision; text-rendering:geometricPrecision; image-rendering:optimizeQuality; fill-rule:evenodd; clip-rule:evenodd" xmlns:xlink="http://www.w3.org/1999/xlink">
<g><path style="opacity:1" fill="#bfbfbf" d="M 50.5,31.5 C 52.0781,33.3747 51.7448,34.7081 49.5,35.5C 49.44,34.9569 49.1067,34.6236 48.5,34.5C 47.1708,60.6636 47.1708,86.6636 48.5,112.5C 52.1188,112.881 55.4521,113.881 58.5,115.5C 54.1667,115.5 49.8333,115.5 45.5,115.5C 44.5416,88.9116 44.2082,62.2449 44.5,35.5C 44.7311,31.2474 46.7311,29.9141 50.5,31.5 Z"/></g>
<g><path style="opacity:1" fill="#000000" d="M 49.5,35.5 C 49.8333,36.1667 50.1667,36.8333 50.5,37.5C 49.8333,37.8333 49.1667,38.1667 48.5,38.5C 48.2627,37.209 48.596,36.209 49.5,35.5 Z"/></g>
<g><path style="opacity:1" fill="#c5c5c5" d="M 50.5,31.5 C 52.5232,34.5203 55.1898,36.8536 58.5,38.5C 59.2905,39.4013 60.2905,40.0679 61.5,40.5C 61.5,41.1667 61.5,41.8333 61.5,42.5C 57.1988,42.182 53.5322,40.5153 50.5,37.5C 50.1667,36.8333 49.8333,36.1667 49.5,35.5C 51.7448,34.7081 52.0781,33.3747 50.5,31.5 Z"/></g>
<g><path style="opacity:1" fill="#676767" d="M 58.5,38.5 C 69.8336,38.6314 81.5003,38.7981 93.5,39C 95.7078,39.1909 97.7078,39.6909 99.5,40.5C 86.8333,40.5 74.1667,40.5 61.5,40.5C 60.2905,40.0679 59.2905,39.4013 58.5,38.5 Z"/></g>
<g><path style="opacity:1" fill="#c2c2c2" d="M 61.5,40.5 C 74.1667,40.5 86.8333,40.5 99.5,40.5C 102.428,41.5914 104.594,43.5914 106,46.5C 108,59.1667 108,71.8333 106,84.5C 104.488,87.8566 101.988,89.8566 98.5,90.5C 90.7572,91.1299 83.4238,90.4633 76.5,88.5C 83.989,87.671 91.6557,87.171 99.5,87C 101.049,85.786 102.215,84.286 103,82.5C 103.667,71.5 103.667,60.5 103,49.5C 102.021,47.0324 100.521,45.0324 98.5,43.5C 86.2467,42.5208 73.9133,42.1874 61.5,42.5C 61.5,41.8333 61.5,41.1667 61.5,40.5 Z"/></g>
<g><path style="opacity:1" fill="#2f2f2f" d="M 61.5,42.5 C 73.9133,42.1874 86.2467,42.5208 98.5,43.5C 98.44,44.0431 98.1067,44.3764 97.5,44.5C 85.3719,43.8521 73.3719,43.1855 61.5,42.5 Z"/></g>
<g><path style="opacity:1" fill="#686868" d="M 74.5,61.5 C 75.2739,60.8529 76.2739,60.5195 77.5,60.5C 79.0296,60.6399 80.0296,61.3065 80.5,62.5C 78.6208,61.6586 76.6208,61.3253 74.5,61.5 Z"/></g>
<g><path style="opacity:1" fill="#545454" d="M 98.5,62.5 C 96.6208,61.6586 94.6208,61.3253 92.5,61.5C 94.7472,59.2309 96.7472,59.5642 98.5,62.5 Z"/></g>
<g><path style="opacity:1" fill="#d3d3d3" d="M 74.5,61.5 C 76.6208,61.3253 78.6208,61.6586 80.5,62.5C 80.7214,65.2788 80.388,67.9455 79.5,70.5C 77.6945,71.2062 75.8612,70.8729 74,69.5C 73.2782,66.7395 73.4448,64.0728 74.5,61.5 Z"/></g>
<g><path style="opacity:1" fill="#d1d1d1" d="M 92.5,61.5 C 94.6208,61.3253 96.6208,61.6586 98.5,62.5C 99.8333,64.8333 99.8333,67.1667 98.5,69.5C 96.5,69.5 94.5,69.5 92.5,69.5C 92.5,66.8333 92.5,64.1667 92.5,61.5 Z"/></g>
<g><path style="opacity:1" fill="#0b0b0b" d="M 80.5,62.5 C 81.1558,63.6216 81.4892,64.9549 81.5,66.5C 81.4146,68.3328 80.7479,69.6661 79.5,70.5C 80.388,67.9455 80.7214,65.2788 80.5,62.5 Z"/></g>
<g><path style="opacity:1" fill="#292929" d="M 92.5,61.5 C 92.5,64.1667 92.5,66.8333 92.5,69.5C 92.5,69.8333 92.5,70.1667 92.5,70.5C 89.8333,67.5 89.8333,64.5 92.5,61.5 Z"/></g>
<g><path style="opacity:1" fill="#787878" d="M 92.5,70.5 C 92.5,70.1667 92.5,69.8333 92.5,69.5C 94.5,69.5 96.5,69.5 98.5,69.5C 96.842,71.6536 94.842,71.9869 92.5,70.5 Z"/></g>
<g><path style="opacity:1" fill="#1c3222" d="M 66.5,82.5 C 64.6017,81.2655 62.935,81.5989 61.5,83.5C 61.484,81.5159 62.484,80.5159 64.5,80.5C 65.7133,80.7472 66.38,81.4138 66.5,82.5 Z"/></g>
<g><path style="opacity:1" fill="#16321d" d="M 66.5,82.5 C 69.6872,84.3438 71.6872,87.0105 72.5,90.5C 71.1667,90.5 69.8333,90.5 68.5,90.5C 68.5,91.5 68.5,92.5 68.5,93.5C 68.1667,93.5 67.8333,93.5 67.5,93.5C 67.2471,91.1727 67.9137,89.1727 69.5,87.5C 68.0476,86.0603 67.0476,84.3936 66.5,82.5 Z"/></g>
<g><path style="opacity:1" fill="#3c9b58" d="M 66.5,82.5 C 67.0476,84.3936 68.0476,86.0603 69.5,87.5C 67.9137,89.1727 67.2471,91.1727 67.5,93.5C 67.5654,93.9382 67.3988,94.2716 67,94.5C 65.9745,91.3072 63.8078,89.9738 60.5,90.5C 60.9926,88.1944 61.3259,85.861 61.5,83.5C 62.935,81.5989 64.6017,81.2655 66.5,82.5 Z"/></g>
<g><path style="opacity:1" fill="#8b8b8a" d="M 76.5,88.5 C 83.4238,90.4633 90.7572,91.1299 98.5,90.5C 91.0113,91.6557 83.3446,91.8223 75.5,91C 74.434,89.841 74.7673,89.0076 76.5,88.5 Z"/></g>
<g><path style="opacity:1" fill="#21552e" d="M 61.5,83.5 C 61.3259,85.861 60.9926,88.1944 60.5,90.5C 63.8078,89.9738 65.9745,91.3072 67,94.5C 67.3988,94.2716 67.5654,93.9382 67.5,93.5C 67.8333,93.5 68.1667,93.5 68.5,93.5C 70.2927,95.4261 71.2927,97.7594 71.5,100.5C 70.1154,99.4264 68.9487,98.0931 68,96.5C 67.51,97.7932 67.3433,99.1266 67.5,100.5C 66.1092,98.0404 64.9425,95.3738 64,92.5C 61.8239,92.0116 59.9906,91.0116 58.5,89.5C 59.5195,87.396 60.5195,85.396 61.5,83.5 Z"/></g>
<g><path style="opacity:1" fill="#6c6c6c" d="M 49.5,35.5 C 48.596,36.209 48.2627,37.209 48.5,38.5C 49.8061,63.0528 49.8061,87.7195 48.5,112.5C 47.1708,86.6636 47.1708,60.6636 48.5,34.5C 49.1067,34.6236 49.44,34.9569 49.5,35.5 Z"/></g>
<g><path style="opacity:1" fill="#052509" d="M 71.5,100.5 C 73.5,101.833 75.1667,103.5 76.5,105.5C 73.8333,104.833 72.1667,103.167 71.5,100.5 Z"/></g>
<g><path style="opacity:1" fill="#3e8653" d="M 71.5,100.5 C 72.1667,103.167 73.8333,104.833 76.5,105.5C 77.0347,107.446 78.368,108.446 80.5,108.5C 82.667,110.511 85.3337,111.678 88.5,112C 92.8206,112.499 97.1539,112.666 101.5,112.5C 101.5,113.5 101.5,114.5 101.5,115.5C 96.8075,115.46 92.1408,115.127 87.5,114.5C 78.3055,113.286 71.6389,108.619 67.5,100.5C 67.3433,99.1266 67.51,97.7932 68,96.5C 68.9487,98.0931 70.1154,99.4264 71.5,100.5 Z"/></g>
<g><path style="opacity:1" fill="#081b0b" d="M 76.5,105.5 C 78.2303,106.026 79.5637,107.026 80.5,108.5C 78.368,108.446 77.0347,107.446 76.5,105.5 Z"/></g>
<g><path style="opacity:1" fill="#0c250f" d="M 80.5,108.5 C 87.5253,110.373 94.5253,111.706 101.5,112.5C 97.1539,112.666 92.8206,112.499 88.5,112C 85.3337,111.678 82.667,110.511 80.5,108.5 Z"/></g>
<g><path style="opacity:1" fill="#8d8d8d" d="M 59.5,115.5 C 59.1667,115.5 58.8333,115.5 58.5,115.5C 55.4521,113.881 52.1188,112.881 48.5,112.5C 52.0183,111.895 55.685,111.895 59.5,112.5C 59.5,113.5 59.5,114.5 59.5,115.5 Z"/></g>
<g><path style="opacity:1" fill="#2f2f2f" d="M 45.5,115.5 C 49.8333,115.5 54.1667,115.5 58.5,115.5C 58.8333,115.5 59.1667,115.5 59.5,115.5C 58.828,116.267 57.9947,116.934 57,117.5C 54.6667,116.167 52.3333,116.167 50,117.5C 48.3775,116.901 46.8775,116.234 45.5,115.5 Z"/></g>
<g><path style="opacity:1" fill="#082109" d="M 87.5,114.5 C 92.1408,115.127 96.8075,115.46 101.5,115.5C 96.7385,116.891 92.0718,116.558 87.5,114.5 Z"/></g>
</svg>
