<?xml version="1.0" encoding="UTF-8"?>
<svg version="1.1" xmlns="http://www.w3.org/2000/svg" width="952" height="949">
<path d="M0 0 C314.16 0 628.32 0 952 0 C952 313.17 952 626.34 952 949 C637.84 949 323.68 949 0 949 C0 635.83 0 322.66 0 0 Z " fill="#000000" transform="translate(0,0)"/>
<path d="M0 0 C3.11412307 3.11412307 4.82993789 5.08401441 6.91796875 8.74609375 C7.44535645 9.65939453 7.97274414 10.57269531 8.51611328 11.51367188 C9.0676709 12.47853516 9.61922852 13.44339844 10.1875 14.4375 C15.12062933 22.91317518 20.14838 31.11885686 26 39 C26.39832031 39.53963379 26.79664063 40.07926758 27.20703125 40.63525391 C37.51155768 54.4929278 49.09111542 67.67565821 63 78 C63.7940625 78.60972656 64.588125 79.21945313 65.40625 79.84765625 C80.24171562 90.80567063 94.48566276 95.44001863 112.78515625 95.4765625 C114.41431261 95.49061366 116.04345838 95.50593781 117.67259216 95.5223999 C121.23907974 95.55552903 124.80546835 95.57919466 128.37207031 95.59588623 C134.17138567 95.62327632 139.97038964 95.6734208 145.76953125 95.72509766 C167.55920014 95.91095912 189.34939178 96.00944906 211.13960552 96.10518074 C219.35578736 96.14140399 227.57195234 96.17951206 235.7881012 96.22262573 C237.01397181 96.22904746 237.01397181 96.22904746 238.26460749 96.23559892 C241.56983821 96.25297702 244.87506838 96.27043991 248.18029654 96.28829932 C258.06313953 96.34164212 267.94590101 96.38470892 277.82885581 96.41050196 C284.12454067 96.42756832 290.42012627 96.45509558 296.71573514 96.49037504 C300.39545975 96.51057586 304.07503689 96.52577093 307.75481987 96.52800751 C311.798317 96.53055044 315.84136052 96.55610178 319.88476562 96.58349609 C321.64506151 96.57899161 321.64506151 96.57899161 323.44091892 96.57439613 C340.82355199 96.74908988 356.61867756 103.77615066 369 116 C388.05978441 137.52352674 393.49336078 166.67314156 393.40405273 194.50512695 C393.40977812 196.15694636 393.41675059 197.80876182 393.42485046 199.46057129 C393.44255929 203.88439463 393.44165605 208.30801725 393.43590808 212.73186517 C393.4327831 216.45378058 393.43894502 220.17565923 393.44494683 223.89756936 C393.45891777 232.69305685 393.45749359 241.48844706 393.44604492 250.28393555 C393.43457503 259.29364523 393.44863754 268.30305683 393.4754414 277.31272727 C393.49774555 285.10789056 393.50420284 292.90296129 393.49836498 300.69815415 C393.49502863 305.3275675 393.49718479 309.95679006 393.51461601 314.58617592 C393.626144 347.36750961 392.7910005 379.06351071 369.125 404.375 C349.30247501 423.01994925 325.51375031 424.61342191 299.82445073 424.40557575 C296.1650158 424.3802967 292.50556286 424.3781995 288.84605408 424.37347412 C281.94031632 424.36112118 275.03483674 424.32840564 268.12921184 424.28807616 C260.25722456 424.24311679 252.38522389 424.22131114 244.51313984 424.20129442 C228.34193865 424.15966451 212.17101268 424.08864381 196 424 C196 418.06 196 412.12 196 406 C197.59534073 405.99635437 199.19068146 405.99270874 200.83436584 405.98895264 C215.91387726 405.95191338 230.99315363 405.8942769 246.07250309 405.81609726 C253.82381054 405.77643038 261.57501827 405.74397561 269.32641602 405.72900391 C276.08918842 405.71592286 282.85174028 405.68879575 289.61438841 405.64538693 C293.18918321 405.62291566 296.76370749 405.60708058 300.33857918 405.60811615 C327.10541688 405.91518004 327.10541688 405.91518004 351 395 C352.05960938 394.23042969 352.05960938 394.23042969 353.140625 393.4453125 C361.17248763 387.03821598 365.66913963 378.48859653 369.3125 369.0625 C369.67625732 368.13352905 369.67625732 368.13352905 370.04736328 367.18579102 C374.20570991 355.74666432 374.29526664 343.91118795 374.2746582 331.90307617 C374.27901451 330.21137774 374.28420069 328.51968127 374.29014587 326.82798767 C374.30344904 322.2658306 374.30412424 317.70375682 374.30158257 313.14158416 C374.30050684 309.31746907 374.3054116 305.49337043 374.310188 301.66925889 C374.32125339 292.63878684 374.32173749 283.6083564 374.31567383 274.57788086 C374.30963751 265.29727743 374.32194323 256.01682575 374.3432439 246.7362482 C374.36092342 238.73582825 374.36685124 230.73545633 374.36360615 222.7350176 C374.3618031 217.97105578 374.36433087 213.20720221 374.37832069 208.44325829 C374.39099817 203.95907488 374.38886232 199.47512608 374.37590981 194.99094582 C374.37356582 193.35726463 374.37619925 191.7235664 374.38453293 190.08990479 C374.49165253 167.43506021 369.48746639 144.16008165 353.4140625 127.2265625 C342.66947523 117.31650628 328.98543573 114.83953264 314.80630493 114.86869812 C313.43122444 114.86552455 313.43122444 114.86552455 312.02836454 114.86228687 C308.96111768 114.85630271 305.89391214 114.85728591 302.82666016 114.8581543 C300.62516205 114.85512163 298.42366457 114.85159987 296.22216797 114.84762573 C291.48157303 114.83974263 286.7409856 114.83459393 282.00038528 114.83133507 C274.493184 114.82541497 266.98602988 114.80886354 259.47885132 114.78999329 C256.90597728 114.78365589 254.33310321 114.77733027 251.76022911 114.77101612 C250.47168801 114.76785031 249.18314691 114.7646845 247.85555911 114.76142275 C241.19325933 114.74540039 234.53095728 114.73072265 227.86865234 114.71704102 C227.20036338 114.71566514 226.53207442 114.71428927 225.84353428 114.71287171 C215.03622818 114.69098517 204.2289338 114.68019559 193.42160948 114.67267027 C182.30197145 114.66457126 171.18242485 114.6409281 160.06284177 114.6047166 C153.82937006 114.58501457 147.59607272 114.57253187 141.3625679 114.57755089 C135.49047618 114.58222122 129.61871417 114.56826204 123.74668884 114.54053879 C121.60226397 114.53366656 119.45780472 114.53345721 117.3133812 114.54073906 C101.83224467 114.58796158 87.49059856 113.39899493 73.375 106.375 C72.67463623 106.03436523 71.97427246 105.69373047 71.25268555 105.34277344 C51.03121443 95.16216648 32.49470056 77.99293408 19 60 C18.67 225.99 18.34 391.98 18 563 C40.77 563 63.54 563 87 563 C87 568.94 87 574.88 87 581 C58.29 581 29.58 581 0 581 C0 389.27 0 197.54 0 0 Z " fill="#FBFBFB" transform="translate(290,158)"/>
<path d="M0 0 C8.45963872 6.95570295 16.15385266 14.71145408 23.2578125 23.0390625 C25.97044244 26.09229171 28.90600453 28.9140315 31.8125 31.78125 C34.39384406 34.3994704 36.77453285 37.14992319 39.16015625 39.9453125 C42.04080344 43.16234099 45.16063705 46.13056038 48.27734375 49.1171875 C50 51 50 51 50 53 C50.66 53 51.32 53 52 53 C52 53.66 52 54.32 52 55 C47.75117602 55.83940617 43.50076295 56.67047347 39.25 57.5 C38.0434375 57.73847656 36.836875 57.97695313 35.59375 58.22265625 C34.43359375 58.44824219 33.2734375 58.67382812 32.078125 58.90625 C31.00981445 59.11572266 29.94150391 59.32519531 28.84082031 59.54101562 C26 60 26 60 22 60 C25.43478756 75.89776386 29.57335989 91.04260323 36 106 C36.35465332 106.82757812 36.70930664 107.65515625 37.07470703 108.5078125 C53.19681788 145.524121 81.47655064 173.57942778 118.96435547 188.83886719 C144.8192787 198.93625714 172.3318464 204.73039246 200.08203125 205.7890625 C204 206 204 206 207.29199219 206.4934082 C210.96846372 206.99569148 214.53847842 207.20501866 218.24609375 207.31640625 C219.23005882 207.3475779 219.23005882 207.3475779 220.23390198 207.37937927 C222.30167546 207.44405938 224.36956101 207.50337466 226.4375 207.5625 C227.85092242 207.60576307 229.26433407 207.64937965 230.67773438 207.69335938 C234.11837719 207.80031191 237.5591207 207.89998681 241 208 C241 213.61 241 219.22 241 225 C220.5622392 225.36690129 200.6359033 224.63225831 180.3203125 222.36279297 C177.57922836 222.06328922 174.84106169 221.79909881 172.09375 221.56640625 C139.61417306 218.65454918 103.08549008 206.87100568 77 187 C75.9378125 186.22914063 74.875625 185.45828125 73.78125 184.6640625 C37.16830208 157.54316728 15.22530304 116.54291482 5.375 72.5859375 C4.95582533 69.69537885 4.97591038 66.91735361 5 64 C4.27409668 64.15146484 3.54819336 64.30292969 2.80029297 64.45898438 C-0.50689979 65.14545261 -3.81589649 65.82280515 -7.125 66.5 C-8.83816406 66.85771484 -8.83816406 66.85771484 -10.5859375 67.22265625 C-11.69453125 67.44824219 -12.803125 67.67382812 -13.9453125 67.90625 C-14.96125488 68.11572266 -15.97719727 68.32519531 -17.02392578 68.54101562 C-20.06412599 69.00988982 -22.92898194 69.0800787 -26 69 C-25.36663251 65.41032894 -24.4141079 62.15085346 -23.12988281 58.74169922 C-22.74568176 57.71648163 -22.36148071 56.69126404 -21.96563721 55.63497925 C-21.54900818 54.53598297 -21.13237915 53.43698669 -20.703125 52.3046875 C-20.27247742 51.16146027 -19.84182983 50.01823303 -19.39813232 48.84036255 C-18.48542417 46.42052543 -17.57076293 44.0014242 -16.65429688 41.58300781 C-15.26386685 37.91161503 -13.88149041 34.2372645 -12.5 30.5625 C-11.60986092 28.2055456 -10.71925071 25.84876905 -9.828125 23.4921875 C-9.21532684 21.86191116 -9.21532684 21.86191116 -8.59014893 20.19869995 C-5.98266788 13.33760083 -3.12067517 6.64341632 0 0 Z " fill="#FBFBFB" transform="translate(406,513)"/>
<path d="M0 0 C4.05970476 2.56838464 8.04917577 5.91248736 9.62475586 10.6159668 C10.58400509 15.7032512 10.2483924 20.98883086 10.24780273 26.15429688 C10.24998562 28.29838012 10.26815125 30.44194541 10.28710938 32.5859375 C10.29004454 33.96093575 10.29202851 35.33593643 10.29296875 36.7109375 C10.29707764 37.95278809 10.30118652 39.19463867 10.30541992 40.47412109 C9.94186603 45.65741303 8.6711476 49.75182624 5.25 53.6875 C4.76917969 54.25984375 4.28835938 54.8321875 3.79296875 55.421875 C-1.36720985 59.94139937 -7.83207482 59.42354842 -14.32421875 59.25 C-19.15877752 58.831876 -21.24442593 58.05609589 -24.9375 54.9375 C-30.75938488 47.43033265 -30.22035289 40.22690326 -30.28759766 31.19702148 C-30.30410961 29.57447926 -30.33133689 27.95200834 -30.36962891 26.32983398 C-30.75065583 10.08317743 -30.75065583 10.08317743 -26.35986328 4.30541992 C-19.47802223 -2.31300703 -8.84943996 -3.14646754 0 0 Z " fill="#FAFAFA" transform="translate(503.9375,390.0625)"/>
<path d="M0 0 C1.20269531 -0.02578125 2.40539062 -0.0515625 3.64453125 -0.078125 C8.33898626 0.35664261 11.55161174 1.77187035 15.05078125 4.93359375 C15.52902344 5.51238281 16.00726562 6.09117187 16.5 6.6875 C17.23669922 7.55181641 17.23669922 7.55181641 17.98828125 8.43359375 C21.58217775 13.87711776 20.37351797 21.20131672 20.37280273 27.46679688 C20.37498562 29.61088012 20.39315125 31.75444541 20.41210938 33.8984375 C20.41504454 35.27343575 20.41702851 36.64843643 20.41796875 38.0234375 C20.42207764 39.26528809 20.42618652 40.50713867 20.43041992 41.78662109 C20.06686603 46.96991303 18.7961476 51.06432624 15.375 55 C14.89417969 55.57234375 14.41335938 56.1446875 13.91796875 56.734375 C8.80039257 61.2165862 2.32351735 60.81222212 -4.12890625 60.6328125 C-9.0833539 60.11792823 -12.27653155 58.73831389 -15.8125 55.25 C-19.72599401 50.07408857 -19.97626796 45.17079206 -20.015625 38.8515625 C-20.02417511 37.78269302 -20.02417511 37.78269302 -20.03289795 36.69223022 C-20.04232224 35.18773878 -20.04887169 33.68322694 -20.05273438 32.17871094 C-20.06243809 29.88960402 -20.09348335 27.60139641 -20.125 25.3125 C-20.13153123 23.84635946 -20.13678123 22.38021255 -20.140625 20.9140625 C-20.1529718 20.23574371 -20.1653186 19.55742493 -20.17803955 18.85855103 C-20.15285672 13.42674932 -18.79424761 9.39839457 -15.09375 5.38671875 C-14.5059375 4.90847656 -13.918125 4.43023437 -13.3125 3.9375 C-12.7246875 3.44636719 -12.136875 2.95523437 -11.53125 2.44921875 C-7.87989259 -0.09843289 -4.31407569 0.05513196 0 0 Z " fill="#FBFBFB" transform="translate(608.8125,388.75)"/>
</svg>
